<mxfile host="65bd71144e">
    <diagram id="rlfz_Lyc3eD7DQKUV7_A" name="Page-1">
        <mxGraphModel dx="923" dy="362" grid="1" gridSize="10" guides="1" tooltips="1" connect="1" arrows="0" fold="1" page="1" pageScale="1" pageWidth="827" pageHeight="1169" background="#808080" math="0" shadow="0">
            <root>
                <mxCell id="0"/>
                <mxCell id="1" parent="0"/>
                <mxCell id="2" value="22&amp;nbsp;Ω" style="pointerEvents=1;verticalLabelPosition=middle;shadow=0;dashed=0;align=center;html=1;verticalAlign=middle;shape=mxgraph.electrical.resistors.resistor_1;rotation=90;labelPosition=center;" parent="1" vertex="1">
                    <mxGeometry x="260" y="209.5" width="120" height="20" as="geometry"/>
                </mxCell>
                <mxCell id="3" value="5V" style="ellipse;whiteSpace=wrap;html=1;aspect=fixed;" parent="1" vertex="1">
                    <mxGeometry x="60" y="60" width="40" height="40" as="geometry"/>
                </mxCell>
                <mxCell id="4" value="3,3V" style="ellipse;whiteSpace=wrap;html=1;aspect=fixed;" parent="1" vertex="1">
                    <mxGeometry x="60" y="100" width="40" height="40" as="geometry"/>
                </mxCell>
                <mxCell id="5" value="23&lt;br&gt;IN" style="ellipse;whiteSpace=wrap;html=1;aspect=fixed;" parent="1" vertex="1">
                    <mxGeometry x="340" y="60" width="40" height="40" as="geometry"/>
                </mxCell>
                <mxCell id="6" value="18&lt;br&gt;OUT" style="ellipse;whiteSpace=wrap;html=1;aspect=fixed;" parent="1" vertex="1">
                    <mxGeometry x="260" y="60" width="40" height="40" as="geometry"/>
                </mxCell>
                <mxCell id="7" value="GND" style="ellipse;whiteSpace=wrap;html=1;aspect=fixed;" parent="1" vertex="1">
                    <mxGeometry x="300" y="60" width="40" height="40" as="geometry"/>
                </mxCell>
                <mxCell id="12" value="" style="endArrow=none;html=1;exitX=1;exitY=0.5;exitDx=0;exitDy=0;exitPerimeter=0;rounded=0;strokeWidth=2;fillColor=#a0522d;strokeColor=#6D1F00;entryX=0;entryY=0;entryDx=0;entryDy=0;entryPerimeter=0;" parent="1" source="2" target="42" edge="1">
                    <mxGeometry width="50" height="50" relative="1" as="geometry">
                        <mxPoint x="610" y="440" as="sourcePoint"/>
                        <mxPoint x="320" y="310" as="targetPoint"/>
                    </mxGeometry>
                </mxCell>
                <mxCell id="13" value="" style="endArrow=none;html=1;exitX=1;exitY=0.5;exitDx=0;exitDy=0;entryX=0;entryY=0.57;entryDx=0;entryDy=0;entryPerimeter=0;fillColor=#d80073;strokeColor=#A50040;strokeWidth=2;" parent="1" source="3" target="8" edge="1">
                    <mxGeometry width="50" height="50" relative="1" as="geometry">
                        <mxPoint x="190" y="210" as="sourcePoint"/>
                        <mxPoint x="240" y="160" as="targetPoint"/>
                    </mxGeometry>
                </mxCell>
                <mxCell id="15" value="" style="endArrow=none;html=1;entryX=1;entryY=0.57;entryDx=0;entryDy=0;entryPerimeter=0;rounded=0;edgeStyle=orthogonalEdgeStyle;fillColor=#a0522d;strokeColor=#6D1F00;strokeWidth=2;exitX=0;exitY=1;exitDx=0;exitDy=0;exitPerimeter=0;" parent="1" source="42" target="9" edge="1">
                    <mxGeometry width="50" height="50" relative="1" as="geometry">
                        <mxPoint x="300" y="401" as="sourcePoint"/>
                        <mxPoint x="660" y="390" as="targetPoint"/>
                        <Array as="points">
                            <mxPoint x="161" y="400"/>
                        </Array>
                    </mxGeometry>
                </mxCell>
                <mxCell id="17" value="" style="endArrow=none;html=1;exitX=1;exitY=0.57;exitDx=0;exitDy=0;exitPerimeter=0;entryX=0;entryY=0.57;entryDx=0;entryDy=0;entryPerimeter=0;fillColor=#a0522d;strokeColor=#6D1F00;strokeWidth=2;" parent="1" source="8" target="9" edge="1">
                    <mxGeometry width="50" height="50" relative="1" as="geometry">
                        <mxPoint x="610" y="440" as="sourcePoint"/>
                        <mxPoint x="660" y="390" as="targetPoint"/>
                    </mxGeometry>
                </mxCell>
                <mxCell id="18" value="10 kΩ" style="pointerEvents=1;verticalLabelPosition=middle;shadow=0;dashed=0;align=center;html=1;verticalAlign=middle;shape=mxgraph.electrical.resistors.resistor_1;rotation=90;labelPosition=center;" parent="1" vertex="1">
                    <mxGeometry x="220" y="209.5" width="120" height="20" as="geometry"/>
                </mxCell>
                <mxCell id="20" value="" style="endArrow=none;html=1;entryX=0.5;entryY=1;entryDx=0;entryDy=0;fillColor=#0050ef;strokeColor=#001DBC;exitX=0;exitY=0.5;exitDx=0;exitDy=0;exitPerimeter=0;rounded=0;strokeWidth=2;" parent="1" source="18" target="6" edge="1">
                    <mxGeometry width="50" height="50" relative="1" as="geometry">
                        <mxPoint x="280" y="360" as="sourcePoint"/>
                        <mxPoint x="660" y="390" as="targetPoint"/>
                    </mxGeometry>
                </mxCell>
                <mxCell id="28" value="" style="endArrow=none;html=1;exitX=1;exitY=0.5;exitDx=0;exitDy=0;exitPerimeter=0;rounded=0;edgeStyle=orthogonalEdgeStyle;strokeWidth=2;fillColor=#a0522d;strokeColor=#6D1F00;entryX=0;entryY=0.5;entryDx=0;entryDy=0;entryPerimeter=0;" parent="1" source="18" target="42" edge="1">
                    <mxGeometry width="50" height="50" relative="1" as="geometry">
                        <mxPoint x="560" y="360" as="sourcePoint"/>
                        <mxPoint x="290" y="380" as="targetPoint"/>
                        <Array as="points">
                            <mxPoint x="280" y="360"/>
                        </Array>
                    </mxGeometry>
                </mxCell>
                <mxCell id="29" value="" style="endArrow=none;html=1;rounded=0;strokeColor=#000000;strokeWidth=2;entryX=0;entryY=0.5;entryDx=0;entryDy=0;entryPerimeter=0;exitX=0.5;exitY=1;exitDx=0;exitDy=0;" parent="1" source="7" target="2" edge="1">
                    <mxGeometry width="50" height="50" relative="1" as="geometry">
                        <mxPoint x="610" y="440" as="sourcePoint"/>
                        <mxPoint x="660" y="390" as="targetPoint"/>
                    </mxGeometry>
                </mxCell>
                <mxCell id="24" value="" style="endArrow=none;html=1;fillColor=#1ba1e2;strokeColor=#006EAF;strokeWidth=2;entryX=1;entryY=0.5;entryDx=0;entryDy=0;rounded=0;exitX=1.003;exitY=0.015;exitDx=0;exitDy=0;exitPerimeter=0;" parent="1" source="22" target="4" edge="1">
                    <mxGeometry width="50" height="50" relative="1" as="geometry">
                        <mxPoint x="630" y="310" as="sourcePoint"/>
                        <mxPoint x="100" y="120" as="targetPoint"/>
                        <Array as="points">
                            <mxPoint x="440" y="160"/>
                            <mxPoint x="380" y="120"/>
                        </Array>
                    </mxGeometry>
                </mxCell>
                <mxCell id="8" value="" style="verticalLabelPosition=bottom;shadow=0;dashed=0;align=center;html=1;verticalAlign=top;shape=mxgraph.electrical.opto_electronics.led_2;pointerEvents=1;rotation=90;" parent="1" vertex="1">
                    <mxGeometry x="85" y="210.75" width="80" height="60" as="geometry"/>
                </mxCell>
                <mxCell id="9" value="" style="verticalLabelPosition=bottom;shadow=0;dashed=0;align=center;html=1;verticalAlign=top;shape=mxgraph.electrical.opto_electronics.led_2;pointerEvents=1;rotation=90;" parent="1" vertex="1">
                    <mxGeometry x="85" y="330" width="80" height="60" as="geometry"/>
                </mxCell>
                <mxCell id="36" value="" style="rounded=0;whiteSpace=wrap;html=1;" parent="1" vertex="1">
                    <mxGeometry x="660" y="200.75" height="80" as="geometry"/>
                </mxCell>
                <mxCell id="53" value="" style="group" parent="1" vertex="1" connectable="0">
                    <mxGeometry x="320" y="320" width="40.5" height="80" as="geometry"/>
                </mxCell>
                <mxCell id="42" value="" style="shape=or;whiteSpace=wrap;html=1;strokeColor=#000000;fillColor=#3D4145;points=[[0,0,0,0,0],[0,0.5,0,0,0],[0,1,0,0,0]];" parent="53" vertex="1">
                    <mxGeometry width="40" height="80" as="geometry"/>
                </mxCell>
                <mxCell id="10" value="" style="verticalLabelPosition=bottom;shadow=0;dashed=0;align=center;html=1;verticalAlign=top;shape=mxgraph.electrical.transistors.npn_transistor_1;rotation=-180;points=[];" parent="53" vertex="1">
                    <mxGeometry x="0.5" y="20" width="40" height="40" as="geometry"/>
                </mxCell>
                <mxCell id="47" value="&lt;p style=&quot;line-height: 160%;&quot;&gt;&lt;font color=&quot;#000000&quot; style=&quot;font-size: 6px;&quot;&gt;E&lt;/font&gt;&lt;/p&gt;" style="ellipse;whiteSpace=wrap;aspect=fixed;strokeColor=#000000;fillColor=#FFFFFF;strokeWidth=0;points=[];align=center;verticalAlign=middle;horizontal=1;labelPosition=center;verticalLabelPosition=middle;html=1;fontSize=8;" parent="53" vertex="1">
                    <mxGeometry x="3.5" y="4" width="10.5" height="10.5" as="geometry"/>
                </mxCell>
                <mxCell id="50" value="&lt;p style=&quot;line-height: 160%;&quot;&gt;&lt;font color=&quot;#000000&quot; style=&quot;font-size: 6px;&quot;&gt;B&lt;/font&gt;&lt;/p&gt;" style="ellipse;whiteSpace=wrap;aspect=fixed;strokeColor=#000000;fillColor=#FFFFFF;strokeWidth=0;points=[];align=center;verticalAlign=middle;horizontal=1;labelPosition=center;verticalLabelPosition=middle;html=1;fontSize=8;" parent="53" vertex="1">
                    <mxGeometry x="3.5" y="35" width="10" height="10" as="geometry"/>
                </mxCell>
                <mxCell id="51" value="&lt;p style=&quot;line-height: 160%;&quot;&gt;&lt;font color=&quot;#000000&quot; style=&quot;font-size: 6px;&quot;&gt;C&lt;/font&gt;&lt;/p&gt;" style="ellipse;whiteSpace=wrap;aspect=fixed;strokeColor=#000000;fillColor=#FFFFFF;strokeWidth=0;points=[];align=center;verticalAlign=middle;horizontal=1;labelPosition=center;verticalLabelPosition=middle;html=1;fontSize=8;" parent="53" vertex="1">
                    <mxGeometry x="3" y="66" width="10" height="10" as="geometry"/>
                </mxCell>
                <mxCell id="58" value="" style="group" parent="1" vertex="1" connectable="0">
                    <mxGeometry x="520" y="160" width="38.139999999999986" height="80.55000000000001" as="geometry"/>
                </mxCell>
                <mxCell id="22" value="" style="rounded=1;whiteSpace=wrap;html=1;rotation=-90;fillColor=#3D4145;strokeColor=#23445d;points=[[0.37,0,0,0,-28],[0.37,0.5,0,0,0],[0.37,1,0,0,28]];" parent="58" vertex="1">
                    <mxGeometry x="-29.539999999999964" y="30.01000000000002" width="80.08" height="20.98" as="geometry"/>
                </mxCell>
                <mxCell id="40" value="&lt;font style=&quot;font-size: 6px;&quot;&gt;IR rec&lt;/font&gt;" style="shape=or;whiteSpace=wrap;html=1;fillColor=#3D4145;strokeColor=#23445D;points=[];" parent="58" vertex="1">
                    <mxGeometry x="20.66999999999996" y="10.5" width="17.47" height="60" as="geometry"/>
                </mxCell>
                <mxCell id="55" value="&lt;p style=&quot;line-height: 160%;&quot;&gt;&lt;font color=&quot;#000000&quot; style=&quot;font-size: 6px;&quot;&gt;S&lt;/font&gt;&lt;/p&gt;" style="ellipse;whiteSpace=wrap;aspect=fixed;strokeColor=#000000;fillColor=#FFFFFF;strokeWidth=0;points=[];align=center;verticalAlign=middle;horizontal=1;labelPosition=center;verticalLabelPosition=middle;html=1;fontSize=8;" parent="58" vertex="1">
                    <mxGeometry y="70.05000000000001" width="10.5" height="10.5" as="geometry"/>
                </mxCell>
                <mxCell id="56" value="&lt;p style=&quot;line-height: 160%;&quot;&gt;&lt;font color=&quot;#000000&quot; style=&quot;font-size: 6px;&quot;&gt;G&lt;/font&gt;&lt;/p&gt;" style="ellipse;whiteSpace=wrap;aspect=fixed;strokeColor=#000000;fillColor=#FFFFFF;strokeWidth=0;points=[];align=center;verticalAlign=middle;horizontal=1;labelPosition=center;verticalLabelPosition=middle;html=1;fontSize=8;" parent="58" vertex="1">
                    <mxGeometry y="35.25" width="10.5" height="10.5" as="geometry"/>
                </mxCell>
                <mxCell id="57" value="&lt;p style=&quot;line-height: 160%;&quot;&gt;&lt;font color=&quot;#000000&quot; style=&quot;font-size: 6px;&quot;&gt;P&lt;/font&gt;&lt;/p&gt;" style="ellipse;whiteSpace=wrap;aspect=fixed;strokeColor=#000000;fillColor=#FFFFFF;strokeWidth=0;points=[];align=center;verticalAlign=middle;horizontal=1;labelPosition=center;verticalLabelPosition=middle;html=1;fontSize=8;" parent="58" vertex="1">
                    <mxGeometry width="10.5" height="10.5" as="geometry"/>
                </mxCell>
                <mxCell id="25" value="" style="endArrow=none;html=1;rounded=0;strokeColor=#333333;strokeWidth=2;exitX=0.515;exitY=-0.028;exitDx=0;exitDy=0;exitPerimeter=0;" parent="1" source="22" edge="1">
                    <mxGeometry width="50" height="50" relative="1" as="geometry">
                        <mxPoint x="520" y="200" as="sourcePoint"/>
                        <mxPoint x="320" y="98.75" as="targetPoint"/>
                        <Array as="points">
                            <mxPoint x="440" y="200.75"/>
                        </Array>
                    </mxGeometry>
                </mxCell>
                <mxCell id="27" value="" style="endArrow=none;html=1;fillColor=#008a00;strokeColor=#005700;strokeWidth=2;rounded=0;exitX=0.014;exitY=0.054;exitDx=0;exitDy=0;exitPerimeter=0;entryX=0.5;entryY=1;entryDx=0;entryDy=0;" parent="1" source="22" target="5" edge="1">
                    <mxGeometry width="50" height="50" relative="1" as="geometry">
                        <mxPoint x="600" y="360" as="sourcePoint"/>
                        <mxPoint x="360" y="120" as="targetPoint"/>
                        <Array as="points">
                            <mxPoint x="400" y="240"/>
                        </Array>
                    </mxGeometry>
                </mxCell>
                <mxCell id="60" value="A" style="text;html=1;strokeColor=none;fillColor=none;align=center;verticalAlign=middle;whiteSpace=wrap;rounded=0;" parent="1" vertex="1">
                    <mxGeometry x="70" y="30" width="20" height="20" as="geometry"/>
                </mxCell>
                <mxCell id="61" value="F" style="text;html=1;strokeColor=none;fillColor=none;align=center;verticalAlign=middle;whiteSpace=wrap;rounded=0;" parent="1" vertex="1">
                    <mxGeometry x="270" y="30" width="20" height="20" as="geometry"/>
                </mxCell>
                <mxCell id="62" value="H" style="text;html=1;strokeColor=none;fillColor=none;align=center;verticalAlign=middle;whiteSpace=wrap;rounded=0;" parent="1" vertex="1">
                    <mxGeometry x="350" y="30" width="20" height="20" as="geometry"/>
                </mxCell>
                <mxCell id="63" value="G" style="text;html=1;strokeColor=none;fillColor=none;align=center;verticalAlign=middle;whiteSpace=wrap;rounded=0;" parent="1" vertex="1">
                    <mxGeometry x="310" y="30" width="20" height="20" as="geometry"/>
                </mxCell>
            </root>
        </mxGraphModel>
    </diagram>
</mxfile>